<svg xmlns="http://www.w3.org/2000/svg" width="36" height="32" viewBox="0 0 36 32" fill="none"><rect x="10.043" y="9.23438" width="1.80533" height="6.43149" rx="0.902666" transform="rotate(90 10.043 9.23438)" fill="url(#paint0_linear_41406_2101)"></rect><rect x="8.125" y="13.7344" width="1.80533" height="8.12399" rx="0.902666" transform="rotate(90 8.125 13.7344)" fill="url(#paint1_linear_41406_2101)"></rect><circle cx="20.5598" cy="15.552" r="14.4427" fill="#FFB719"></circle><circle cx="20.5862" cy="15.5276" r="11.9885" fill="#E38C00"></circle><circle cx="20.5864" cy="15.4732" r="9.95753" fill="white"></circle><circle cx="20.5827" cy="15.4733" r="1.55146" fill="#4B4B58"></circle><path d="M26.1697 15.0625C26.6326 15.0625 27.0078 15.4377 27.0078 15.9006C27.0078 16.3635 26.6326 16.7387 26.1697 16.7387L20.8825 16.7387C20.4196 16.7387 20.0444 16.3635 20.0444 15.9006C20.0444 15.4377 20.4196 15.0625 20.8825 15.0625L26.1697 15.0625Z" fill="#616171"></path><path d="M19.5312 10.1487C19.5312 9.7214 19.8777 9.375 20.305 9.375C20.7323 9.375 21.0787 9.7214 21.0787 10.1487V15.8226C21.0787 16.2499 20.7323 16.5963 20.305 16.5963C19.8777 16.5963 19.5312 16.2499 19.5312 15.8226V10.1487Z" fill="#737386"></path><defs><linearGradient id="paint0_linear_41406_2101" x1="10.9456" y1="9.23438" x2="10.9456" y2="15.6659" gradientUnits="userSpaceOnUse"><stop stop-color="#FFA412"></stop><stop offset="1" stop-color="#FFA412" stop-opacity="0"></stop></linearGradient><linearGradient id="paint1_linear_41406_2101" x1="9.02767" y1="13.7344" x2="9.02767" y2="21.8584" gradientUnits="userSpaceOnUse"><stop stop-color="#FFA412"></stop><stop offset="1" stop-color="#FFA412" stop-opacity="0"></stop></linearGradient></defs></svg>