<svg xmlns="http://www.w3.org/2000/svg" width="72" height="72" viewBox="0 0 72 72" fill="none"><g filter="url(#filter0_f_41559_841)"><ellipse cx="32.2368" cy="59.7871" rx="29.2368" ry="1.12305" fill="#8689C2" fill-opacity="0.4"></ellipse></g><path d="M9.0272 12.2016C5.64203 11.9623 4.65327 18.5702 4.58203 21.9041L13.9853 21.6476C13.7431 18.5987 12.4124 12.441 9.0272 12.2016Z" fill="#9292F4"></path><g filter="url(#filter1_i_41559_841)"><path d="M42.5383 11.0034L8.51562 12.2001C11.593 12.0919 12.7391 15.7103 13.5164 21.5573C14.4995 28.9516 15.474 45.8005 16.9785 52.1605C18.4831 58.5206 20.5689 60.0854 21.6802 60.0284L52.4544 58.8744L47.6673 16.6453C46.5731 11.9608 43.792 10.9321 42.5383 11.0034Z" fill="url(#paint0_linear_41559_841)"></path></g><path d="M24.8023 49.8067H19.9297L21.5111 47.2422L23.3918 47.3704L24.8023 49.8067Z" fill="#C9D0F2"></path><path d="M57.5384 45.2812L22.4045 46.649C23.5443 46.7345 25.0972 48.145 25.6529 53.1885C25.8241 58.281 22.9174 59.9133 21.3359 60.07L56.5981 58.8732C57.9516 58.5598 60.6757 56.7447 60.7441 51.9917C60.8125 47.2388 58.6355 45.5377 57.5384 45.2812Z" fill="url(#paint1_linear_41559_841)"></path><g filter="url(#filter2_f_41559_841)"><path d="M8.83316 13.6187C5.70815 12.9662 4.95551 18.8986 4.96982 21.9464H4.49777C4.45485 18.7984 5.21893 12.4424 8.61867 12.202C12.0184 11.9616 13.8971 18.2546 14.2405 21.4312C15.0561 29.0864 16.5081 45.0321 16.8172 47.5733C17.2035 50.7499 17.9336 53.8409 19.2643 56.5882C20.3178 58.7632 21.5562 58.5672 22.3723 58.4381L22.3979 58.4341C25.5315 57.1892 25.1455 52.2094 24.4158 50.106C24.1439 49.4621 23.5569 48.0026 22.3979 48.0026C21.3586 48.0026 20.6809 49.3476 20.4662 50.106H19.5648C20.3203 47.29 21.7683 46.6146 22.3979 46.6289C24.7588 46.6826 25.5819 51.1475 25.7461 52.3382C25.9178 53.583 25.6138 59.8866 21.4535 60.0649C18.4487 60.1937 16.2023 51.7229 15.6585 47.5733L12.9971 21.6458C12.6171 18.6921 11.9582 14.2711 8.83316 13.6187Z" fill="#DFE2F8"></path></g><g filter="url(#filter3_f_41559_841)"><path d="M8.83316 13.6187C5.70815 12.9662 4.95551 18.8986 4.96982 21.9464H4.49777C4.45485 18.7984 5.21893 12.4424 8.61867 12.202C12.0184 11.9616 13.8971 18.2546 14.2405 21.4312C15.0561 29.0864 16.5081 45.0321 16.8172 47.5733C17.2035 50.7499 17.9336 53.8409 19.2643 56.5882C20.3178 58.7632 21.5562 58.5672 22.3723 58.4381L22.3979 58.4341C25.5315 57.1892 25.1455 52.2094 24.4158 50.106C24.1439 49.4621 23.5569 48.0026 22.3979 48.0026C21.4908 48.0026 20.8591 49.0272 20.5704 49.792C20.5013 49.9752 20.3311 50.106 20.1353 50.106C19.8475 50.106 19.6377 49.8319 19.7287 49.5588C20.5141 47.201 21.8113 46.6156 22.3979 46.6289C24.7588 46.6826 25.5819 51.1475 25.7461 52.3382C25.9178 53.583 25.6138 59.8866 21.4535 60.0649C18.4487 60.1937 16.2023 51.7229 15.6585 47.5733L12.9971 21.6458C12.6171 18.6921 11.9582 14.2711 8.83316 13.6187Z" fill="url(#paint2_linear_41559_841)"></path></g><g filter="url(#filter4_f_41559_841)"><path d="M8.8332 13.6224C5.70819 12.9699 4.95555 18.9023 4.96986 21.9501H4.49781C4.45489 18.8021 5.19983 12.4394 8.59957 12.199C9.96405 12.1023 12.7539 13.857 12.9972 21.6495C12.9113 19.2457 11.9582 14.2748 8.8332 13.6224Z" fill="url(#paint3_linear_41559_841)" fill-opacity="0.5"></path></g><g filter="url(#filter5_dii_41559_841)"><g filter="url(#filter6_dii_41559_841)"><rect width="25.3339" height="1.0401" rx="0.52005" transform="matrix(0.99965 -0.0264499 0.0264548 0.99965 18.6016 19.6641)" fill="#9292F4"></rect></g><g filter="url(#filter7_dii_41559_841)"><rect x="19.3906" y="23.6094" width="25.3339" height="1.0401" rx="0.52005" transform="rotate(-1.51578 19.3906 23.6094)" fill="#9292F4"></rect></g><g filter="url(#filter8_dii_41559_841)"><rect width="25.3339" height="1.0401" rx="0.52005" transform="matrix(0.99965 -0.0264499 0.0264548 0.99965 20.3008 27.2422)" fill="#9292F4"></rect></g></g><g filter="url(#filter9_ii_41559_841)"><path d="M40.9099 53.766C40.7812 53.7662 40.6579 53.8174 40.5669 53.9084C40.4759 53.9994 40.4247 54.1227 40.4245 54.2514V56.1898H38.4854C38.4214 56.1896 38.3581 56.202 38.299 56.2264C38.2399 56.2508 38.1863 56.2867 38.1412 56.332C38.096 56.3773 38.0603 56.4311 38.0361 56.4902C38.0119 56.5494 37.9996 56.6128 38 56.6767V59.1012C38 59.2299 38.0511 59.3534 38.1422 59.4444C38.2332 59.5354 38.3567 59.5866 38.4854 59.5866H69.5147C69.6433 59.5863 69.7665 59.5351 69.8574 59.4441C69.9483 59.3531 69.9993 59.2298 69.9993 59.1012V56.6767C69.9994 56.613 69.9869 56.55 69.9626 56.4911C69.9383 56.4323 69.9026 56.3788 69.8576 56.3338C69.8126 56.2888 69.7591 56.2531 69.7003 56.2288C69.6414 56.2045 69.5784 56.192 69.5147 56.1921H67.5748V54.2514C67.5748 54.1228 67.5237 53.9995 67.4329 53.9085C67.342 53.8175 67.2188 53.7662 67.0902 53.766H65.8177V39.0595H67.091C67.2196 39.0593 67.3428 39.0081 67.4337 38.9171C67.5245 38.8261 67.5756 38.7028 67.5756 38.5742V36.635H69.5155C69.624 36.6349 69.7293 36.5983 69.8146 36.5312C69.8999 36.4642 69.9603 36.3704 69.9861 36.265C70.0119 36.1596 70.0016 36.0486 69.9569 35.9497C69.9122 35.8509 69.8357 35.7698 69.7395 35.7195L54.2233 27.6417C54.1544 27.6051 54.0776 27.5859 53.9996 27.5859C53.9217 27.5859 53.8449 27.6051 53.776 27.6417L38.2614 35.7195C38.1652 35.7698 38.0886 35.8509 38.0439 35.9497C37.9992 36.0486 37.989 36.1596 38.0148 36.265C38.0405 36.3704 38.1009 36.4642 38.1862 36.5312C38.2715 36.5983 38.3769 36.6349 38.4854 36.635H40.4245V38.5734C40.4247 38.7021 40.4759 38.8254 40.5669 38.9164C40.6579 39.0074 40.7812 39.0586 40.9099 39.0588H42.1824V53.766H40.9099ZM45.258 39.0595H49.0336V53.766H45.258V39.0595ZM52.1107 39.0595H55.8902V53.766H52.1107V39.0595ZM58.9649 39.0595H62.7421V53.766H58.9649V39.0595Z" fill="url(#paint4_linear_41559_841)"></path></g><defs><filter id="filter0_f_41559_841" x="1.5026" y="57.1667" width="61.4675" height="5.2448" filterUnits="userSpaceOnUse" color-interpolation-filters="sRGB"><feGaussianBlur stdDeviation="0.7487"></feGaussianBlur></filter><filter id="filter1_i_41559_841" x="7.60806" y="11" width="44.8451" height="49.0312" filterUnits="userSpaceOnUse" color-interpolation-filters="sRGB"><feGaussianBlur stdDeviation="0.907561"></feGaussianBlur></filter><filter id="filter2_f_41559_841" x="4.06867" y="11.7679" width="22.14" height="48.722" filterUnits="userSpaceOnUse" color-interpolation-filters="sRGB"><feGaussianBlur stdDeviation="0.21371"></feGaussianBlur></filter><filter id="filter3_f_41559_841" x="4.06867" y="11.7679" width="22.14" height="48.722" filterUnits="userSpaceOnUse" color-interpolation-filters="sRGB"><feGaussianBlur stdDeviation="0.21371"></feGaussianBlur></filter><filter id="filter4_f_41559_841" x="4.06867" y="11.7679" width="9.35484" height="10.6127" filterUnits="userSpaceOnUse" color-interpolation-filters="sRGB"><feGaussianBlur stdDeviation="0.21371"></feGaussianBlur></filter><filter id="filter5_dii_41559_841" x="18.3161" y="18.7849" width="27.6217" height="10.075" filterUnits="userSpaceOnUse" color-interpolation-filters="sRGB"><feGaussianBlur stdDeviation="0.148586"></feGaussianBlur><feGaussianBlur stdDeviation="0.148586"></feGaussianBlur><feGaussianBlur stdDeviation="0.148586"></feGaussianBlur></filter><filter id="filter6_dii_41559_841" x="18.3161" y="18.7849" width="25.9225" height="2.49691" filterUnits="userSpaceOnUse" color-interpolation-filters="sRGB"><feGaussianBlur stdDeviation="0.148586"></feGaussianBlur><feGaussianBlur stdDeviation="0.148586"></feGaussianBlur><feGaussianBlur stdDeviation="0.148586"></feGaussianBlur></filter><filter id="filter7_dii_41559_841" x="19.1052" y="22.7302" width="25.9225" height="2.49691" filterUnits="userSpaceOnUse" color-interpolation-filters="sRGB"><feGaussianBlur stdDeviation="0.148586"></feGaussianBlur><feGaussianBlur stdDeviation="0.148586"></feGaussianBlur><feGaussianBlur stdDeviation="0.148586"></feGaussianBlur></filter><filter id="filter8_dii_41559_841" x="20.0153" y="26.3631" width="25.9225" height="2.49691" filterUnits="userSpaceOnUse" color-interpolation-filters="sRGB"><feGaussianBlur stdDeviation="0.148586"></feGaussianBlur><feGaussianBlur stdDeviation="0.148586"></feGaussianBlur><feGaussianBlur stdDeviation="0.148586"></feGaussianBlur></filter><filter id="filter9_ii_41559_841" x="37.7354" y="27.3214" width="33.1906" height="33.1906" filterUnits="userSpaceOnUse" color-interpolation-filters="sRGB"><feGaussianBlur stdDeviation="0.661465"></feGaussianBlur><feGaussianBlur stdDeviation="0.496099"></feGaussianBlur></filter><linearGradient id="paint0_linear_41559_841" x1="29.8779" y1="9.6356" x2="32.0413" y2="58.1932" gradientUnits="userSpaceOnUse"><stop stop-color="#EDF0FF"></stop><stop offset="0.114583" stop-color="white"></stop><stop offset="0.255208" stop-color="#EDF0FF"></stop><stop offset="0.885417" stop-color="#E6EAFD"></stop><stop offset="1" stop-color="#BFC7F0"></stop></linearGradient><linearGradient id="paint1_linear_41559_841" x1="40.4963" y1="44.8704" x2="40.9137" y2="59.5318" gradientUnits="userSpaceOnUse"><stop stop-color="#EFF3FF"></stop><stop offset="0.171875" stop-color="white"></stop><stop offset="0.640625" stop-color="#EDF0FF"></stop></linearGradient><linearGradient id="paint2_linear_41559_841" x1="9.53965" y1="12.1953" x2="25.7816" y2="55.493" gradientUnits="userSpaceOnUse"><stop stop-color="#DFE2F8"></stop><stop offset="1" stop-color="#E4E7FB"></stop></linearGradient><linearGradient id="paint3_linear_41559_841" x1="12.7763" y1="12.1953" x2="5.59703" y2="20.402" gradientUnits="userSpaceOnUse"><stop stop-color="white" stop-opacity="0"></stop><stop offset="0.515625" stop-color="white"></stop><stop offset="0.989583" stop-color="white" stop-opacity="0"></stop></linearGradient><linearGradient id="paint4_linear_41559_841" x1="41.9048" y1="31.2062" x2="55.4638" y2="62.7406" gradientUnits="userSpaceOnUse"><stop stop-color="#ABB0F8"></stop><stop offset="1" stop-color="#6D6DDF"></stop></linearGradient></defs></svg>