<svg xmlns="http://www.w3.org/2000/svg" width="35" height="35" viewBox="0 0 35 35" fill="none"><g clip-path="url(#clip0_41406_1916)"><rect x="1.16797" y="32.6641" width="32.6667" height="1.16667" rx="0.583333" fill="#ED9B64"></rect><path d="M2.33203 25.6667C2.33203 25.0223 2.85437 24.5 3.4987 24.5H6.9987C7.64303 24.5 8.16536 25.0223 8.16536 25.6667V32.6667H2.33203V25.6667Z" fill="#FFC97A"></path><path d="M10.5 19.8307C10.5 19.1864 11.0223 18.6641 11.6667 18.6641H15.1667C15.811 18.6641 16.3333 19.1864 16.3333 19.8307V32.6641H10.5V19.8307Z" fill="#5EC10C"></path><path d="M18.668 22.1667C18.668 21.5223 19.1903 21 19.8346 21H23.3346C23.979 21 24.5013 21.5223 24.5013 22.1667V32.6667H18.668V22.1667Z" fill="#FFC97A"></path><path d="M26.832 16.3307C26.832 15.6864 27.3544 15.1641 27.9987 15.1641H31.4987C32.143 15.1641 32.6654 15.6864 32.6654 16.3307V32.6641H26.832V16.3307Z" fill="#5EC10C"></path><path d="M2.63003 20.6869C1.95953 19.9884 2.63003 19.1795 2.63003 19.1795L11.2322 10.3556C11.2322 10.3556 11.7019 9.98796 12.0635 9.98796C12.4251 9.98796 12.9671 10.3556 12.9671 10.3556L20.4488 14.1058L28.5811 4.21566L27.4245 4.43626C27.4245 4.43626 26.3401 4.54655 26.1957 3.59063C26.0513 2.63471 27.0631 2.26705 27.0631 2.26705L31.4365 1.16406C31.4365 1.16406 32.0757 1.22436 32.3401 1.49496C32.5674 1.72763 32.6654 2.26705 32.6654 2.26705V6.97313C32.6654 6.97313 32.3401 7.81875 31.5449 7.78198C30.7498 7.74522 30.4967 6.97313 30.4967 6.97313L30.569 5.20835L21.6416 16.1647C21.6416 16.1647 21.0994 16.6059 20.7741 16.6426C20.4488 16.6794 19.6175 16.1647 19.6175 16.1647L12.2442 12.4513L4.14806 20.6869C4.14806 20.6869 3.30053 21.3855 2.63003 20.6869Z" fill="#138C61"></path></g><defs><clipPath id="clip0_41406_1916"><rect width="32.6667" height="32.6667" fill="white" transform="translate(1.16797 1.16406)"></rect></clipPath></defs></svg>