<svg xmlns="http://www.w3.org/2000/svg" width="72" height="72" viewBox="0 0 72 72" fill="none"><g filter="url(#filter0_f_41559_840)"><ellipse cx="36" cy="58.2031" rx="32" ry="1.5" fill="#FFAC32" fill-opacity="0.2"></ellipse></g><g filter="url(#filter1_ii_41559_840)"><path d="M4 18.5382C4 15.4795 6.47954 13 9.53821 13H62.0483C65.107 13 67.5865 15.4795 67.5865 18.5382V52.1596C67.5865 55.2183 65.107 57.6978 62.0483 57.6978H9.53821C6.47954 57.6978 4 55.2183 4 52.1596V18.5382Z" fill="url(#paint0_linear_41559_840)"></path></g><path d="M4 18.5363C4 15.4787 6.4787 13 9.53634 13H62.0502C65.1078 13 67.5865 15.4787 67.5865 18.5363V21.3859H4V18.5363Z" fill="url(#paint1_linear_41559_840)"></path><path d="M4 18.5363C4 15.4787 6.4787 13 9.53634 13H62.0502C65.1078 13 67.5865 15.4787 67.5865 18.5363V21.3859H4V18.5363Z" fill="url(#paint2_linear_41559_840)" fill-opacity="0.9"></path><path d="M4 18.5363C4 15.4787 6.4787 13 9.53634 13H12.5488V21.3859H4V18.5363Z" fill="url(#paint3_linear_41559_840)" fill-opacity="0.9"></path><path d="M61.0742 13H62.0512C65.1089 13 67.5876 15.4787 67.5876 18.5363V21.3859H61.0742V13Z" fill="url(#paint4_linear_41559_840)"></path><g filter="url(#filter2_d_41559_840)"><circle cx="20.4097" cy="34.2065" r="3.94871" fill="url(#paint5_linear_41559_840)"></circle><g filter="url(#filter3_f_41559_840)"><circle cx="20.408" cy="34.2049" r="3.13455" fill="url(#paint6_linear_41559_840)" fill-opacity="0.14"></circle></g><g filter="url(#filter4_f_41559_840)"><path d="M20.408 31.0703C18.6768 31.0703 17.2734 32.4737 17.2734 34.2049C17.2734 34.546 17.3279 34.8744 17.4287 35.1819C17.2272 32.7068 19.3309 31.4095 20.408 31.0703Z" fill="url(#paint7_linear_41559_840)" fill-opacity="0.5"></path></g></g><g filter="url(#filter5_d_41559_840)"><path d="M20.7757 39.2302C16.0209 38.9642 13.5557 41.5093 12.9367 43.2985C12.8081 43.6701 12.7864 44.079 12.9337 44.4436C13.5417 45.9484 16.1181 47.4532 20.7757 47.4532C25.7065 47.4532 27.651 45.6859 28.1912 44.4183C28.3403 44.0685 28.3503 43.6753 28.2432 43.3105C27.8011 41.8051 25.9113 39.5175 20.7757 39.2302Z" fill="url(#paint8_linear_41559_840)"></path><g filter="url(#filter6_f_41559_840)"><path d="M20.7467 39.8134C16.2301 39.559 14.1344 42.2975 13.9375 43.8018C14.0415 45.2362 16.2651 46.8801 20.7467 46.8801C25.6101 46.8801 27.0692 44.8513 27.2084 43.8015C27.1274 42.5888 25.7215 40.0937 20.7467 39.8134Z" fill="url(#paint9_linear_41559_840)" fill-opacity="0.14"></path></g><g filter="url(#filter7_f_41559_840)"><path d="M19.026 39.875C15.6917 40.2944 14.1074 42.5121 13.9375 43.8104C13.9507 43.9931 13.9984 44.1791 14.0806 44.3648C14.5534 41.8897 17.5746 40.3403 19.026 39.875Z" fill="url(#paint10_linear_41559_840)" fill-opacity="0.5"></path></g></g><g filter="url(#filter8_dii_41559_840)"><rect x="40.3125" y="31.4844" width="14.4922" height="2.52392" rx="1.26196" fill="#FFAC32"></rect></g><g filter="url(#filter9_dii_41559_840)"><rect x="36.2422" y="39.0547" width="22.5525" height="1.79117" rx="0.895585" fill="#FFAC32"></rect></g><g filter="url(#filter10_dii_41559_840)"><rect x="36.2422" y="44.4297" width="22.5525" height="1.79117" rx="0.895585" fill="#FFAC32"></rect></g><defs><filter id="filter0_f_41559_840" x="2" y="54.7031" width="68" height="7" filterUnits="userSpaceOnUse" color-interpolation-filters="sRGB"><feGaussianBlur stdDeviation="1"></feGaussianBlur></filter><filter id="filter1_ii_41559_840" x="2.71779" y="11.7178" width="66.9197" height="48.0291" filterUnits="userSpaceOnUse" color-interpolation-filters="sRGB"><feGaussianBlur stdDeviation="1.02577"></feGaussianBlur><feGaussianBlur stdDeviation="1.02577"></feGaussianBlur></filter><filter id="filter2_d_41559_840" x="16.1353" y="30.2578" width="8.54977" height="8.54977" filterUnits="userSpaceOnUse" color-interpolation-filters="sRGB"><feGaussianBlur stdDeviation="0.162834"></feGaussianBlur></filter><filter id="filter3_f_41559_840" x="16.3779" y="30.1747" width="8.0607" height="8.05679" filterUnits="userSpaceOnUse" color-interpolation-filters="sRGB"><feGaussianBlur stdDeviation="0.447792"></feGaussianBlur></filter><filter id="filter4_f_41559_840" x="16.8664" y="30.6632" width="3.94698" height="4.92354" filterUnits="userSpaceOnUse" color-interpolation-filters="sRGB"><feGaussianBlur stdDeviation="0.203542"></feGaussianBlur></filter><filter id="filter5_d_41559_840" x="12.5064" y="39.2109" width="16.1357" height="8.89352" filterUnits="userSpaceOnUse" color-interpolation-filters="sRGB"><feGaussianBlur stdDeviation="0.162834"></feGaussianBlur></filter><filter id="filter6_f_41559_840" x="13.0419" y="38.9013" width="15.0607" height="8.87711" filterUnits="userSpaceOnUse" color-interpolation-filters="sRGB"><feGaussianBlur stdDeviation="0.447792"></feGaussianBlur></filter><filter id="filter7_f_41559_840" x="13.5304" y="39.4679" width="5.90401" height="5.30636" filterUnits="userSpaceOnUse" color-interpolation-filters="sRGB"><feGaussianBlur stdDeviation="0.203542"></feGaussianBlur></filter><filter id="filter8_dii_41559_840" x="39.9868" y="31.2401" width="15.1435" height="3.41902" filterUnits="userSpaceOnUse" color-interpolation-filters="sRGB"><feGaussianBlur stdDeviation="0.162834"></feGaussianBlur><feGaussianBlur stdDeviation="0.162834"></feGaussianBlur><feGaussianBlur stdDeviation="0.162834"></feGaussianBlur></filter><filter id="filter9_dii_41559_840" x="35.9165" y="38.8104" width="23.2021" height="2.68465" filterUnits="userSpaceOnUse" color-interpolation-filters="sRGB"><feGaussianBlur stdDeviation="0.162834"></feGaussianBlur><feGaussianBlur stdDeviation="0.162834"></feGaussianBlur><feGaussianBlur stdDeviation="0.162834"></feGaussianBlur></filter><filter id="filter10_dii_41559_840" x="35.9165" y="44.1854" width="23.2021" height="2.68465" filterUnits="userSpaceOnUse" color-interpolation-filters="sRGB"><feGaussianBlur stdDeviation="0.162834"></feGaussianBlur><feGaussianBlur stdDeviation="0.162834"></feGaussianBlur><feGaussianBlur stdDeviation="0.162834"></feGaussianBlur></filter><linearGradient id="paint0_linear_41559_840" x1="35.7933" y1="13" x2="35.7933" y2="57.6978" gradientUnits="userSpaceOnUse"><stop stop-color="#FFF6EF"></stop><stop offset="1" stop-color="#FFFBF8"></stop></linearGradient><linearGradient id="paint1_linear_41559_840" x1="4" y1="16.0244" x2="69.6626" y2="16.0244" gradientUnits="userSpaceOnUse"><stop stop-color="#FFAC33"></stop><stop offset="1" stop-color="#FF9900"></stop></linearGradient><linearGradient id="paint2_linear_41559_840" x1="19.8763" y1="7.42295" x2="19.8763" y2="16.3381" gradientUnits="userSpaceOnUse"><stop stop-color="white"></stop><stop offset="1" stop-color="white" stop-opacity="0"></stop></linearGradient><linearGradient id="paint3_linear_41559_840" x1="-1.94343" y1="16.3381" x2="7.54163" y2="16.3381" gradientUnits="userSpaceOnUse"><stop stop-color="white"></stop><stop offset="1" stop-color="white" stop-opacity="0"></stop></linearGradient><linearGradient id="paint4_linear_41559_840" x1="62.9377" y1="15.8127" x2="71.9027" y2="15.8127" gradientUnits="userSpaceOnUse"><stop stop-color="#FFAB2F" stop-opacity="0"></stop><stop offset="1" stop-color="#FF9D08"></stop></linearGradient><linearGradient id="paint5_linear_41559_840" x1="16.4609" y1="33.1061" x2="24.6162" y2="33.1061" gradientUnits="userSpaceOnUse"><stop stop-color="#FFAC33"></stop><stop offset="1" stop-color="#FF9900"></stop></linearGradient><linearGradient id="paint6_linear_41559_840" x1="17.7582" y1="32.2336" x2="22.4115" y2="36.6931" gradientUnits="userSpaceOnUse"><stop stop-color="white"></stop><stop offset="1" stop-color="white" stop-opacity="0.5"></stop></linearGradient><linearGradient id="paint7_linear_41559_840" x1="20.3266" y1="31.0703" x2="17.2734" y2="34.1234" gradientUnits="userSpaceOnUse"><stop stop-color="white" stop-opacity="0"></stop><stop offset="0.515625" stop-color="white"></stop><stop offset="0.989583" stop-color="white" stop-opacity="0"></stop></linearGradient><linearGradient id="paint8_linear_41559_840" x1="12.7969" y1="42.1836" x2="28.8552" y2="42.1836" gradientUnits="userSpaceOnUse"><stop stop-color="#FFAC33"></stop><stop offset="1" stop-color="#FF9900"></stop></linearGradient><linearGradient id="paint9_linear_41559_840" x1="14.9636" y1="41.1113" x2="19.4376" y2="49.1444" gradientUnits="userSpaceOnUse"><stop stop-color="white"></stop><stop offset="1" stop-color="white" stop-opacity="0.5"></stop></linearGradient><linearGradient id="paint10_linear_41559_840" x1="18.8939" y1="39.875" x2="15.8058" y2="44.4658" gradientUnits="userSpaceOnUse"><stop stop-color="white" stop-opacity="0"></stop><stop offset="0.515625" stop-color="white"></stop><stop offset="0.989583" stop-color="white" stop-opacity="0"></stop></linearGradient></defs></svg>