<svg xmlns="http://www.w3.org/2000/svg" width="35" height="34" viewBox="0 0 35 34" fill="none"><path fill-rule="evenodd" clip-rule="evenodd" d="M33.0723 17.1579C33.3892 17.4908 33.4295 18.0812 33.1624 18.4764L25.5725 29.696L19.0074 26.0725L15.2406 31.7369L7.71381 28.1351L3.19785 32.4197C2.86791 32.7327 2.39682 32.6531 2.14565 32.242C1.89447 31.8308 1.95831 31.2437 2.28825 30.9306L7.47042 26.014L14.7724 29.5081L18.5764 23.7878L25.1506 27.4163L32.0142 17.27C32.2815 16.875 32.7552 16.8247 33.0723 17.1579Z" fill="url(#paint0_linear_41406_2116)"></path><path d="M4.89062 19.5269C6.18444 20.5765 7.7114 21.2999 9.34305 21.6364C10.9747 21.9729 12.6633 21.9124 14.2668 21.4603C15.8701 21.0081 17.3415 20.1775 18.557 19.0382C19.7726 17.899 20.6967 16.4844 21.2516 14.9136C21.8064 13.3427 21.976 11.6615 21.7457 10.0116C21.5156 8.36156 20.8925 6.79099 19.9289 5.43202C18.9652 4.07302 17.6892 2.96538 16.2083 2.20227C14.7273 1.43917 13.0849 1.04293 11.4189 1.0469L11.4437 11.4488L4.89062 19.5269Z" fill="#7CDA0F"></path><path d="M11.4449 1.04688C10.0789 1.04688 8.72626 1.31593 7.46424 1.83867C6.20223 2.36142 5.05553 3.12762 4.08961 4.09352C3.12371 5.05944 2.35752 6.20613 1.83477 7.46815C1.31202 8.73016 1.04297 10.0828 1.04297 11.4488H11.4449V1.04688Z" fill="#2196F3"></path><path d="M1.04297 11.4453C1.04297 13.3883 1.58722 15.2926 2.61404 16.9422C3.64086 18.5918 5.1092 19.9208 6.85266 20.7787L11.4449 11.4453H1.04297Z" fill="#FFC107"></path><path d="M27.4651 18.2768L33.3409 17.0362L33.8634 22.783" stroke="#368EF1" stroke-width="1.56734" stroke-linecap="round"></path><defs><linearGradient id="paint0_linear_41406_2116" x1="31.9939" y1="17.9122" x2="1.37585" y2="27.2138" gradientUnits="userSpaceOnUse"><stop stop-color="#358EF0"></stop><stop offset="1" stop-color="#6AADFF"></stop></linearGradient></defs></svg>