<svg xmlns="http://www.w3.org/2000/svg" width="35" height="30" viewBox="0 0 35 30" fill="none"><path d="M16.7583 15.056C16.7583 12.2666 17.1685 9.88752 18.194 8.28777C19.0144 6.97515 20.286 6.11374 22.2139 6.11374C24.1828 6.11374 25.3724 6.97515 26.1928 8.28777C27.2593 9.88752 27.6695 12.2666 27.6695 15.056C27.6695 17.8453 27.2593 20.2244 26.1928 21.8242C25.3724 23.1368 24.1828 23.9982 22.2139 23.9982C20.286 23.9982 19.0144 23.1368 18.194 21.8242C17.1685 20.2244 16.7583 17.8453 16.7583 15.056ZM11.0977 15.056C11.0977 18.4606 11.6309 21.7831 13.4358 24.5314C15.1996 27.1567 18.071 29.0026 22.2139 29.0026C26.3569 29.0026 29.2282 27.1567 30.951 24.5314C32.7559 21.7831 33.3302 18.4606 33.3302 15.056C33.3302 11.6514 32.7559 8.32879 30.951 5.58049C29.2282 2.95525 26.3569 1.10938 22.2139 1.10938C18.071 1.10938 15.1996 2.95525 13.4358 5.58049C11.6309 8.32879 11.0977 11.6514 11.0977 15.056Z" fill="url(#paint0_linear_41406_2054)"></path><path d="M4.61936 14.6731L1 8.35361V7.51101H1.4213C2.09794 7.51101 2.66605 7.44718 3.12565 7.31951C3.59802 7.19185 3.96826 6.98119 4.23636 6.68756C4.50446 6.39393 4.66404 5.99178 4.71511 5.48111H1V4.25551H4.69596C4.60659 3.78314 4.42786 3.40014 4.15976 3.1065C3.89165 2.8001 3.5278 2.57669 3.0682 2.43625C2.62137 2.29582 2.0724 2.2256 1.4213 2.2256H1V1H8.92811V2.2256H5.30876C5.60239 2.46817 5.84496 2.75542 6.03646 3.08735C6.22796 3.41929 6.34924 3.80867 6.40031 4.25551H8.92811V5.48111H6.43861C6.34924 6.41308 5.99178 7.14078 5.36621 7.66421C4.75341 8.17488 3.93634 8.50043 2.915 8.64086L6.57266 14.6731H4.61936Z" fill="#5C33AF"></path><defs><linearGradient id="paint0_linear_41406_2054" x1="48.5" y1="10.6953" x2="14" y2="-8.80469" gradientUnits="userSpaceOnUse"><stop stop-color="#6C7BF0"></stop><stop offset="1" stop-color="#5C33AF"></stop></linearGradient></defs></svg>